<svg width="1280" height="1280" viewBox="0 0 1280 1280" fill="none" xmlns="http://www.w3.org/2000/svg">
<rect width="1280" height="1280" fill="#1E1E1E"/>
<path d="M418.13 476H860.319C874.481 476 887.698 483.107 895.507 494.921C900.068 501.821 902.5 509.91 902.5 518.181V621.5V628C902.5 635.732 896.232 642 888.5 642H821.125C790.68 642 766 666.68 766 697.125C766 727.57 790.68 752.25 821.125 752.25H888.5C896.232 752.25 902.5 758.518 902.5 766.25V843.974C902.5 855.87 897.943 867.315 889.766 875.955C880.978 885.24 868.758 890.5 855.974 890.5H423.758C398.658 890.5 374.949 878.97 359.449 859.227C348.145 844.827 342 827.049 342 808.742V471.526C342 449.164 351.186 427.783 367.407 412.39C382.555 398.014 402.642 390 423.526 390H803.092C815.283 390 827.06 394.418 836.243 402.435L843.85 409.075C849.981 414.428 853.5 422.171 853.5 430.311V446.5C853.5 453.127 848.127 458.5 841.5 458.5C834.873 458.5 829.5 453.127 829.5 446.5V442.252C829.5 438.531 828.222 434.922 825.881 432.029L822.258 427.554C816.086 419.93 806.801 415.5 796.991 415.5H417.98C412.12 415.5 406.387 417.204 401.478 420.406C383.285 432.27 383.271 458.941 401.374 470.943C406.336 474.234 412.176 476 418.13 476Z" fill="#EFEFEF" stroke="#EFEFEF"/>
<path d="M821.067 657H896.334C919.346 657 938 675.654 938 698.666C938 721.937 918.939 740.697 895.671 740.326L859 739.743L820.413 739.128C797.99 738.771 780 720.492 780 698.067C780 675.386 798.386 657 821.067 657Z" fill="#EFEFEF" stroke="#EFEFEF"/>
</svg>
