<svg width="250" height="250" viewBox="0 0 250 250" fill="none" xmlns="http://www.w3.org/2000/svg">
<g clip-path="url(#clip0_117_37)">
<g filter="url(#filter0_d_117_37)">
<path d="M218 176C225.732 176 232.092 169.707 231.115 162.037C228.089 138.279 217.4 116.047 200.514 98.9254C180.354 78.4839 153.011 67 124.5 67C95.9892 67 68.6462 78.4839 48.486 98.9254C31.5996 116.047 20.9113 138.279 17.8853 162.037C16.9084 169.707 23.268 176 31 176L124.5 176H218Z" fill="#5AA3D5"/>
<rect x="78" y="41" width="17" height="56" rx="8.5" fill="#5AA3D4"/>
<rect x="150" y="34" width="17" height="56" rx="8.5" fill="#5AA3D4"/>
</g>
<ellipse cx="96" cy="118.5" rx="13" ry="15.5" fill="white"/>
<path d="M96 135.5C104.244 135.5 110.5 127.631 110.5 118.5C110.5 109.369 104.244 101.5 96 101.5C87.7555 101.5 81.5 109.369 81.5 118.5C81.5 127.631 87.7555 135.5 96 135.5Z" stroke="#151515" stroke-opacity="0.12" stroke-width="3"/>
<ellipse cx="150" cy="118.5" rx="13" ry="15.5" fill="white"/>
<path d="M150 135.5C158.244 135.5 164.5 127.631 164.5 118.5C164.5 109.369 158.244 101.5 150 101.5C141.756 101.5 135.5 109.369 135.5 118.5C135.5 127.631 141.756 135.5 150 135.5Z" stroke="#151515" stroke-opacity="0.12" stroke-width="3"/>
<circle cx="97" cy="119" r="3" fill="#797777"/>
<circle cx="147" cy="119" r="3" fill="#797777"/>
<rect x="165" y="145" width="6" height="24" rx="1" fill="#D9D9D9"/>
<rect x="178" y="145" width="6" height="24" rx="1" fill="#D9D9D9"/>
<rect x="191" y="145" width="6" height="24" rx="1" fill="#D9D9D9"/>
<rect x="165" y="199" width="6" height="24" rx="1" fill="#D9D9D9"/>
<rect x="178" y="199" width="6" height="24" rx="1" fill="#D9D9D9"/>
<rect x="191" y="199" width="6" height="24" rx="1" fill="#D9D9D9"/>
<rect x="144" y="152" width="72" height="64" rx="5" fill="#363434"/>
<path d="M168.909 180.159C168.091 180.159 167.392 179.924 166.812 179.455C166.237 178.981 165.794 178.297 165.483 177.403C165.176 176.509 165.023 175.436 165.023 174.182C165.023 172.932 165.176 171.862 165.483 170.972C165.794 170.078 166.239 169.394 166.818 168.92C167.402 168.443 168.098 168.205 168.909 168.205C169.72 168.205 170.415 168.443 170.994 168.92C171.578 169.394 172.023 170.078 172.33 170.972C172.64 171.862 172.795 172.932 172.795 174.182C172.795 175.436 172.64 176.509 172.33 177.403C172.023 178.297 171.58 178.981 171 179.455C170.424 179.924 169.727 180.159 168.909 180.159ZM168.909 179.205C169.807 179.205 170.508 178.767 171.011 177.892C171.515 177.013 171.767 175.777 171.767 174.182C171.767 173.121 171.652 172.216 171.42 171.466C171.193 170.712 170.866 170.136 170.438 169.739C170.013 169.341 169.504 169.142 168.909 169.142C168.019 169.142 167.32 169.585 166.812 170.472C166.305 171.354 166.051 172.591 166.051 174.182C166.051 175.242 166.165 176.148 166.392 176.898C166.623 177.648 166.951 178.22 167.375 178.614C167.803 179.008 168.314 179.205 168.909 179.205ZM178.699 168.364V180H177.636V169.477H177.568L174.841 171.29V170.188L177.591 168.364H178.699ZM185.824 168.364V180H184.761V169.477H184.693L181.966 171.29V170.188L184.716 168.364H185.824ZM192.972 180.159C192.153 180.159 191.455 179.924 190.875 179.455C190.299 178.981 189.856 178.297 189.545 177.403C189.239 176.509 189.085 175.436 189.085 174.182C189.085 172.932 189.239 171.862 189.545 170.972C189.856 170.078 190.301 169.394 190.881 168.92C191.464 168.443 192.161 168.205 192.972 168.205C193.782 168.205 194.477 168.443 195.057 168.92C195.64 169.394 196.085 170.078 196.392 170.972C196.703 171.862 196.858 172.932 196.858 174.182C196.858 175.436 196.703 176.509 196.392 177.403C196.085 178.297 195.642 178.981 195.062 179.455C194.487 179.924 193.79 180.159 192.972 180.159ZM192.972 179.205C193.869 179.205 194.57 178.767 195.074 177.892C195.578 177.013 195.83 175.777 195.83 174.182C195.83 173.121 195.714 172.216 195.483 171.466C195.256 170.712 194.928 170.136 194.5 169.739C194.076 169.341 193.566 169.142 192.972 169.142C192.081 169.142 191.383 169.585 190.875 170.472C190.367 171.354 190.114 172.591 190.114 174.182C190.114 175.242 190.227 176.148 190.455 176.898C190.686 177.648 191.013 178.22 191.438 178.614C191.866 179.008 192.377 179.205 192.972 179.205ZM168.886 187.364V199H167.824V188.477H167.756L165.028 190.29V189.188L167.778 187.364H168.886ZM176.034 199.159C175.216 199.159 174.517 198.924 173.938 198.455C173.362 197.981 172.919 197.297 172.608 196.403C172.301 195.509 172.148 194.436 172.148 193.182C172.148 191.932 172.301 190.862 172.608 189.972C172.919 189.078 173.364 188.394 173.943 187.92C174.527 187.443 175.223 187.205 176.034 187.205C176.845 187.205 177.54 187.443 178.119 187.92C178.703 188.394 179.148 189.078 179.455 189.972C179.765 190.862 179.92 191.932 179.92 193.182C179.92 194.436 179.765 195.509 179.455 196.403C179.148 197.297 178.705 197.981 178.125 198.455C177.549 198.924 176.852 199.159 176.034 199.159ZM176.034 198.205C176.932 198.205 177.633 197.767 178.136 196.892C178.64 196.013 178.892 194.777 178.892 193.182C178.892 192.121 178.777 191.216 178.545 190.466C178.318 189.712 177.991 189.136 177.562 188.739C177.138 188.341 176.629 188.142 176.034 188.142C175.144 188.142 174.445 188.585 173.938 189.472C173.43 190.354 173.176 191.591 173.176 193.182C173.176 194.242 173.29 195.148 173.517 195.898C173.748 196.648 174.076 197.22 174.5 197.614C174.928 198.008 175.439 198.205 176.034 198.205ZM185.824 187.364V199H184.761V188.477H184.693L181.966 190.29V189.188L184.716 187.364H185.824ZM192.972 199.159C192.153 199.159 191.455 198.924 190.875 198.455C190.299 197.981 189.856 197.297 189.545 196.403C189.239 195.509 189.085 194.436 189.085 193.182C189.085 191.932 189.239 190.862 189.545 189.972C189.856 189.078 190.301 188.394 190.881 187.92C191.464 187.443 192.161 187.205 192.972 187.205C193.782 187.205 194.477 187.443 195.057 187.92C195.64 188.394 196.085 189.078 196.392 189.972C196.703 190.862 196.858 191.932 196.858 193.182C196.858 194.436 196.703 195.509 196.392 196.403C196.085 197.297 195.642 197.981 195.062 198.455C194.487 198.924 193.79 199.159 192.972 199.159ZM192.972 198.205C193.869 198.205 194.57 197.767 195.074 196.892C195.578 196.013 195.83 194.777 195.83 193.182C195.83 192.121 195.714 191.216 195.483 190.466C195.256 189.712 194.928 189.136 194.5 188.739C194.076 188.341 193.566 188.142 192.972 188.142C192.081 188.142 191.383 188.585 190.875 189.472C190.367 190.354 190.114 191.591 190.114 193.182C190.114 194.242 190.227 195.148 190.455 195.898C190.686 196.648 191.013 197.22 191.438 197.614C191.866 198.008 192.377 198.205 192.972 198.205Z" fill="white"/>
</g>
<defs>
<filter id="filter0_d_117_37" x="13.7859" y="34" width="221.428" height="150" filterUnits="userSpaceOnUse" color-interpolation-filters="sRGB">
<feFlood flood-opacity="0" result="BackgroundImageFix"/>
<feColorMatrix in="SourceAlpha" type="matrix" values="0 0 0 0 0 0 0 0 0 0 0 0 0 0 0 0 0 0 127 0" result="hardAlpha"/>
<feOffset dy="4"/>
<feGaussianBlur stdDeviation="2"/>
<feComposite in2="hardAlpha" operator="out"/>
<feColorMatrix type="matrix" values="0 0 0 0 0 0 0 0 0 0 0 0 0 0 0 0 0 0 0.25 0"/>
<feBlend mode="normal" in2="BackgroundImageFix" result="effect1_dropShadow_117_37"/>
<feBlend mode="normal" in="SourceGraphic" in2="effect1_dropShadow_117_37" result="shape"/>
</filter>
<clipPath id="clip0_117_37">
<rect width="250" height="250" fill="white"/>
</clipPath>
</defs>
</svg>
